<svg width="26" height="20" viewBox="0 0 26 20" fill="none" xmlns="http://www.w3.org/2000/svg">
<path d="M22.625 3.875H19.3984C19.2344 3.875 19.0309 3.76891 18.8723 3.60156L17.4538 1.36266C17.4313 1.32712 17.4063 1.29331 17.3788 1.26148C16.8888 0.69 16.2266 0.375 15.5156 0.375H10.4844C9.77344 0.375 9.11117 0.69 8.62117 1.26148C8.59373 1.29331 8.56869 1.32712 8.54625 1.36266L7.12766 3.60484C7.00625 3.73719 6.83563 3.87828 6.65625 3.87828V3.44078C6.65625 3.20872 6.56406 2.98616 6.39997 2.82206C6.23587 2.65797 6.01331 2.56578 5.78125 2.56578H4.46875C4.23669 2.56578 4.01413 2.65797 3.85003 2.82206C3.68594 2.98616 3.59375 3.20872 3.59375 3.44078V3.87828H3.375C2.67903 3.879 2.01177 4.1558 1.51964 4.64793C1.02752 5.14005 0.750724 5.80731 0.75 6.50328V17C0.750724 17.696 1.02752 18.3632 1.51964 18.8554C2.01177 19.3475 2.67903 19.6243 3.375 19.625H22.625C23.321 19.6243 23.9882 19.3475 24.4804 18.8554C24.9725 18.3632 25.2493 17.696 25.25 17V6.5C25.2493 5.80403 24.9725 5.13677 24.4804 4.64464C23.9882 4.15252 23.321 3.87572 22.625 3.875ZM13 16.125C11.9616 16.125 10.9466 15.8171 10.0833 15.2402C9.2199 14.6633 8.54699 13.8434 8.14963 12.8841C7.75227 11.9248 7.64831 10.8692 7.85088 9.85078C8.05345 8.83238 8.55346 7.89692 9.28769 7.16269C10.0219 6.42846 10.9574 5.92845 11.9758 5.72588C12.9942 5.52331 14.0498 5.62727 15.0091 6.02463C15.9684 6.42199 16.7883 7.0949 17.3652 7.95826C17.9421 8.82161 18.25 9.83665 18.25 10.875C18.2484 12.2669 17.6948 13.6013 16.7106 14.5856C15.7263 15.5698 14.3919 16.1234 13 16.125Z" fill="#3048EA"/>
</svg>
