<svg width="46" height="36" viewBox="0 0 46 36" fill="none" xmlns="http://www.w3.org/2000/svg">
<path d="M40.875 6.625H34.8828C34.5781 6.625 34.2003 6.42797 33.9058 6.11719L31.2712 1.95922C31.2296 1.89323 31.1831 1.83043 31.1321 1.77133C30.2221 0.71 28.9922 0.125 27.6719 0.125H18.3281C17.0078 0.125 15.7779 0.71 14.8679 1.77133C14.8169 1.83043 14.7704 1.89323 14.7288 1.95922L12.0942 6.12328C11.8687 6.36906 11.5519 6.63109 11.2188 6.63109V5.81859C11.2188 5.38762 11.0475 4.97429 10.7428 4.66955C10.4381 4.3648 10.0247 4.19359 9.59375 4.19359H7.15625C6.72527 4.19359 6.31195 4.3648 6.0072 4.66955C5.70246 4.97429 5.53125 5.38762 5.53125 5.81859V6.63109H5.125C3.83248 6.63244 2.59329 7.14648 1.67934 8.06043C0.765391 8.97438 0.251344 10.2136 0.25 11.5061V31C0.251344 32.2925 0.765391 33.5317 1.67934 34.4457C2.59329 35.3596 3.83248 35.8737 5.125 35.875H40.875C42.1675 35.8737 43.4067 35.3596 44.3207 34.4457C45.2346 33.5317 45.7487 32.2925 45.75 31V11.5C45.7487 10.2075 45.2346 8.96829 44.3207 8.05434C43.4067 7.14039 42.1675 6.62634 40.875 6.625ZM23 29.375C21.0716 29.375 19.1866 28.8032 17.5832 27.7318C15.9798 26.6605 14.7301 25.1377 13.9922 23.3562C13.2542 21.5746 13.0611 19.6142 13.4373 17.7229C13.8135 15.8316 14.7421 14.0943 16.1057 12.7307C17.4693 11.3671 19.2066 10.4385 21.0979 10.0623C22.9892 9.68614 24.9496 9.87922 26.7312 10.6172C28.5127 11.3551 30.0355 12.6048 31.1068 14.2082C32.1782 15.8116 32.75 17.6966 32.75 19.625C32.747 22.21 31.7189 24.6882 29.891 26.516C28.0632 28.3439 25.585 29.372 23 29.375Z" fill="white"/>
</svg>
