<svg width="28" height="28" viewBox="0 0 28 28" fill="none" xmlns="http://www.w3.org/2000/svg">
<path d="M15.5093 2.5552e-06C15.9209 2.5552e-06 16.2891 0.256203 16.4277 0.639803L17.4161 3.3796C17.7703 3.4678 18.0741 3.556 18.3317 3.6484C18.6131 3.7492 18.9757 3.9018 19.4237 4.1104L21.7253 2.8924C21.9132 2.79287 22.1283 2.75695 22.3383 2.79001C22.5483 2.82308 22.742 2.92336 22.8902 3.0758L24.9145 5.1688C25.1833 5.4474 25.2589 5.8548 25.1077 6.2104L24.0283 8.7402C24.2075 9.0692 24.3503 9.3506 24.4595 9.5858C24.5772 9.842 24.7227 10.1948 24.8964 10.6498L27.4121 11.7278C27.7901 11.8888 28.0239 12.2668 27.9987 12.6714L27.8139 15.5764C27.8013 15.7651 27.7336 15.946 27.6191 16.0966C27.5046 16.2471 27.3484 16.3608 27.1699 16.4234L24.7871 17.2704C24.7185 17.5994 24.6472 17.8808 24.5716 18.1188C24.4496 18.4864 24.3104 18.848 24.1543 19.2024L25.3513 21.8484C25.4358 22.0343 25.4586 22.2424 25.4163 22.4422C25.3739 22.6419 25.2688 22.8229 25.1161 22.9586L22.8397 24.9914C22.6898 25.1247 22.5028 25.209 22.3036 25.233C22.1044 25.2571 21.9027 25.2197 21.7253 25.1258L19.3789 23.8826C19.0118 24.077 18.6331 24.2486 18.2449 24.3964L17.2201 24.78L16.3101 27.3C16.2427 27.4846 16.1211 27.6444 15.9612 27.7586C15.8013 27.8728 15.6106 27.9359 15.4141 27.9398L12.7541 28C12.5525 28.0053 12.3542 27.948 12.1864 27.8359C12.0187 27.7238 11.8898 27.5625 11.8175 27.3742L10.7451 24.5364C10.3793 24.4114 10.017 24.276 9.65875 24.1304C9.36575 24.0036 9.07718 23.8668 8.79355 23.7202L6.13355 24.857C5.95828 24.9318 5.76505 24.954 5.57739 24.9209C5.38972 24.8879 5.21572 24.801 5.07655 24.6708L3.10815 22.8242C2.9616 22.6873 2.86179 22.5078 2.82285 22.3111C2.78391 22.1144 2.8078 21.9104 2.89115 21.728L4.03495 19.236C3.88283 18.9408 3.7418 18.6401 3.61215 18.3344C3.46081 17.9602 3.32075 17.5816 3.19215 17.199L0.686148 16.436C0.482449 16.3744 0.30478 16.2473 0.180734 16.0744C0.0566875 15.9015 -0.00679403 15.6925 0.000148246 15.4798L0.0981482 12.7904C0.105124 12.6149 0.15994 12.4447 0.256667 12.2981C0.353395 12.1516 0.488354 12.0342 0.646948 11.9588L3.27615 10.696C3.39795 10.2494 3.50435 9.9022 3.59815 9.6488C3.73023 9.31035 3.8769 8.97777 4.03775 8.652L2.89815 6.244C2.81166 6.06114 2.7854 5.85556 2.82314 5.65682C2.86087 5.45809 2.96066 5.27644 3.10815 5.138L5.07375 3.2816C5.21154 3.15165 5.38395 3.06427 5.57023 3.03C5.75651 2.99572 5.94872 3.016 6.12375 3.0884L8.78095 4.186C9.07495 3.99 9.34095 3.8318 9.58175 3.7044C9.86875 3.5518 10.2523 3.3922 10.7353 3.22L11.6593 0.642603C11.7277 0.453978 11.8525 0.291036 12.0169 0.176026C12.1813 0.0610157 12.3771 -0.000456751 12.5777 2.5552e-06H15.5093ZM14.0337 9.8266C11.6999 9.8266 9.80855 11.6956 9.80855 14.0028C9.80855 16.31 11.6999 18.1804 14.0337 18.1804C16.3661 18.1804 18.2575 16.31 18.2575 14.0028C18.2575 11.6956 16.3675 9.8266 14.0337 9.8266Z" fill="#3048EA"/>
</svg>
