<svg width="52" height="52" viewBox="0 0 52 52" fill="none" xmlns="http://www.w3.org/2000/svg">
<path d="M28.8033 4.74537e-06C29.5677 4.74537e-06 30.2515 0.475805 30.5089 1.1882L32.3445 6.27641C33.0023 6.44021 33.5665 6.60401 34.0449 6.77561C34.5675 6.96281 35.2409 7.24621 36.0729 7.63361L40.3473 5.37161C40.6962 5.18676 41.0956 5.12004 41.4856 5.18145C41.8756 5.24286 42.2352 5.42909 42.5105 5.71221L46.2701 9.59921C46.7693 10.1166 46.9097 10.8732 46.6289 11.5336L44.6243 16.2318C44.9571 16.8428 45.2223 17.3654 45.4251 17.8022C45.6435 18.278 45.9139 18.9332 46.2363 19.7782L50.9085 21.7802C51.6105 22.0792 52.0447 22.7812 51.9979 23.5326L51.6547 28.9276C51.6312 29.2781 51.5054 29.614 51.2928 29.8936C51.0801 30.1732 50.7901 30.3843 50.4587 30.5006L46.0335 32.0736C45.9061 32.6846 45.7735 33.2072 45.6331 33.6492C45.4066 34.3318 45.1481 35.0034 44.8583 35.6616L47.0813 40.5756C47.2382 40.9209 47.2804 41.3073 47.2018 41.6783C47.1232 42.0493 46.9279 42.3854 46.6445 42.6374L42.4169 46.4126C42.1384 46.6602 41.791 46.8168 41.4211 46.8614C41.0512 46.906 40.6766 46.8365 40.3473 46.6622L35.9897 44.3534C35.3079 44.7144 34.6046 45.0331 33.8837 45.3076L31.9805 46.02L30.2905 50.7C30.1652 51.0427 29.9393 51.3396 29.6424 51.5516C29.3454 51.7637 28.9913 51.881 28.6265 51.8882L23.6865 52C23.312 52.0098 22.9436 51.9034 22.6321 51.6952C22.3206 51.4871 22.0813 51.1876 21.9471 50.8378L19.9555 45.5676C19.2759 45.3354 18.6031 45.0839 17.9379 44.8136C17.3937 44.5781 16.8578 44.324 16.3311 44.0518L11.3911 46.163C11.0656 46.3019 10.7067 46.3431 10.3582 46.2817C10.0097 46.2203 9.68652 46.0589 9.42807 45.8172L5.77247 42.3878C5.5003 42.1336 5.31495 41.8002 5.24263 41.4349C5.17031 41.0696 5.21468 40.6907 5.36947 40.352L7.49367 35.724C7.21116 35.1759 6.94924 34.6173 6.70847 34.0496C6.42741 33.3547 6.16729 32.6515 5.92847 31.941L1.27447 30.524C0.896169 30.4097 0.566213 30.1736 0.335841 29.8525C0.105469 29.5314 -0.0124257 29.1432 0.000467138 28.7482L0.182467 23.7536C0.195422 23.4277 0.297222 23.1116 0.47686 22.8394C0.656497 22.5672 0.907135 22.3493 1.20167 22.2092L6.08447 19.864C6.31067 19.0346 6.50827 18.3898 6.68247 17.9192C6.92775 17.2906 7.20014 16.673 7.49887 16.068L5.38247 11.596C5.22185 11.2564 5.17308 10.8746 5.24316 10.5055C5.31324 10.1365 5.49855 9.79911 5.77247 9.54201L9.42287 6.09441C9.67876 5.85305 9.99895 5.69079 10.3449 5.62713C10.6908 5.56348 11.0478 5.60115 11.3729 5.73561L16.3077 7.77401C16.8537 7.41001 17.3477 7.11621 17.7949 6.87961C18.3279 6.59621 19.0403 6.29981 19.9373 5.98001L21.6533 1.1934C21.7801 0.843103 22.012 0.540496 22.3173 0.326906C22.6225 0.113315 22.9863 -0.000848252 23.3589 4.74537e-06H28.8033ZM26.0629 18.2494C21.7287 18.2494 18.2161 21.7204 18.2161 26.0052C18.2161 30.29 21.7287 33.7636 26.0629 33.7636C30.3945 33.7636 33.9071 30.29 33.9071 26.0052C33.9071 21.7204 30.3971 18.2494 26.0629 18.2494Z" fill="white"/>
</svg>
