<svg width="24" height="24" viewBox="0 0 24 24" fill="none" xmlns="http://www.w3.org/2000/svg">
<path d="M11.3 19.1879L19.9287 10.5592C18.4769 9.95308 17.1585 9.06751 16.0483 7.95285C14.9331 6.84244 14.0472 5.52359 13.4408 4.07135L4.81215 12.7C4.13898 13.3732 3.80182 13.7104 3.51248 14.0814C3.17077 14.5192 2.87777 14.9929 2.63865 15.4942C2.43682 15.9189 2.28632 16.3715 1.98532 17.2745L0.396315 22.038C0.323181 22.2561 0.31233 22.4903 0.364983 22.7142C0.417635 22.9382 0.531703 23.143 0.694365 23.3056C0.857027 23.4683 1.06183 23.5824 1.28577 23.635C1.5097 23.6877 1.74388 23.6768 1.96198 23.6037L6.72548 22.0147C7.62965 21.7137 8.08115 21.5632 8.50582 21.3614C9.00748 21.1222 9.48115 20.8294 9.91865 20.4875C10.2896 20.1982 10.6268 19.861 11.3 19.1879ZM22.3227 8.16519C23.183 7.30485 23.6663 6.13798 23.6663 4.92127C23.6663 3.70457 23.183 2.53769 22.3227 1.67735C21.4623 0.817013 20.2954 0.333679 19.0787 0.333679C17.862 0.333679 16.6952 0.817013 15.8348 1.67735L14.8 2.71219L14.8443 2.84169C15.3543 4.30086 16.1888 5.62524 17.285 6.71502C18.4074 7.844 19.7781 8.69498 21.2878 9.20002L22.3227 8.16519Z" fill="#3048EA"/>
</svg>
