<svg width="44" height="44" viewBox="0 0 44 44" fill="none" xmlns="http://www.w3.org/2000/svg">
<path d="M20.6999 35.3489L36.7245 19.3242C34.0285 18.1986 31.5799 16.554 29.5182 14.4839C27.4472 12.4217 25.8018 9.97239 24.6757 7.27538L8.65105 23.3C7.40088 24.5502 6.77471 25.1764 6.23738 25.8654C5.60278 26.6785 5.05862 27.5583 4.61455 28.4892C4.23971 29.2779 3.96021 30.1185 3.40121 31.7955L0.450212 40.642C0.314391 41.0471 0.29424 41.482 0.392023 41.8979C0.489806 42.3138 0.701647 42.6941 1.00373 42.9962C1.30582 43.2983 1.68618 43.5101 2.10205 43.6079C2.51792 43.7057 2.95283 43.6855 3.35788 43.5497L12.2044 40.5987C13.8835 40.0397 14.722 39.7602 15.5107 39.3854C16.4424 38.9412 17.322 38.3974 18.1345 37.7625C18.8235 37.2252 19.4497 36.599 20.6999 35.3489ZM41.1705 14.8782C42.7683 13.2804 43.6659 11.1134 43.6659 8.8538C43.6659 6.5942 42.7683 4.42715 41.1705 2.82938C39.5728 1.2316 37.4057 0.333984 35.1461 0.333984C32.8865 0.333984 30.7195 1.2316 29.1217 2.82938L27.1999 4.75121L27.2822 4.99171C28.2293 7.7016 29.7791 10.1612 31.8149 12.185C33.8993 14.2817 36.445 15.8621 39.2487 16.8L41.1705 14.8782Z" fill="white"/>
</svg>
