<svg width="40" height="45" viewBox="0 0 40 45" fill="none" xmlns="http://www.w3.org/2000/svg">
<path d="M20 0.333313C25.1717 0.333313 30.1316 2.38777 33.7886 6.04473C37.4455 9.70169 39.5 14.6616 39.5 19.8333C39.5 26.4936 35.8687 31.945 32.0423 35.8558C30.1303 37.7882 28.0444 39.5405 25.811 41.0905L24.888 41.7188L24.4547 42.007L23.6378 42.527L22.9098 42.9711L22.0085 43.4955C21.3964 43.8439 20.7043 44.027 20 44.027C19.2957 44.027 18.6036 43.8439 17.9915 43.4955L17.0902 42.9711L15.9635 42.2778L15.5475 42.007L14.6592 41.4155C12.2498 39.7847 10.0053 37.9226 7.95767 35.8558C4.13133 31.9428 0.5 26.4936 0.5 19.8333C0.5 14.6616 2.55446 9.70169 6.21142 6.04473C9.86838 2.38777 14.8283 0.333313 20 0.333313ZM20 13.3333C19.1464 13.3333 18.3012 13.5014 17.5126 13.8281C16.7239 14.1548 16.0074 14.6335 15.4038 15.2371C14.8002 15.8407 14.3214 16.5573 13.9948 17.3459C13.6681 18.1345 13.5 18.9797 13.5 19.8333C13.5 20.6869 13.6681 21.5321 13.9948 22.3208C14.3214 23.1094 14.8002 23.8259 15.4038 24.4295C16.0074 25.0331 16.7239 25.5119 17.5126 25.8385C18.3012 26.1652 19.1464 26.3333 20 26.3333C21.7239 26.3333 23.3772 25.6485 24.5962 24.4295C25.8152 23.2105 26.5 21.5572 26.5 19.8333C26.5 18.1094 25.8152 16.4561 24.5962 15.2371C23.3772 14.0181 21.7239 13.3333 20 13.3333Z" fill="white"/>
</svg>
