<svg width="22" height="24" viewBox="0 0 22 24" fill="none" xmlns="http://www.w3.org/2000/svg">
<path d="M11 0.333313C13.7848 0.333313 16.4555 1.43956 18.4246 3.40869C20.3938 5.37782 21.5 8.04854 21.5 10.8333C21.5 14.4196 19.5447 17.355 17.4843 19.4608C16.4548 20.5014 15.3316 21.4449 14.129 22.2795L13.632 22.6178L13.3987 22.773L12.9588 23.053L12.5668 23.2922L12.0815 23.5745C11.7519 23.7621 11.3792 23.8607 11 23.8607C10.6208 23.8607 10.2481 23.7621 9.9185 23.5745L9.43317 23.2922L8.8265 22.9188L8.6025 22.773L8.12417 22.4545C6.82681 21.5764 5.61824 20.5737 4.51567 19.4608C2.45533 17.3538 0.5 14.4196 0.5 10.8333C0.5 8.04854 1.60625 5.37782 3.57538 3.40869C5.54451 1.43956 8.21523 0.333313 11 0.333313ZM11 7.33331C10.5404 7.33331 10.0852 7.42384 9.66061 7.59974C9.23597 7.77563 8.85013 8.03343 8.52513 8.35844C8.20012 8.68344 7.94231 9.06928 7.76642 9.49392C7.59053 9.91856 7.5 10.3737 7.5 10.8333C7.5 11.2929 7.59053 11.7481 7.76642 12.1727C7.94231 12.5973 8.20012 12.9832 8.52513 13.3082C8.85013 13.6332 9.23597 13.891 9.66061 14.0669C10.0852 14.2428 10.5404 14.3333 11 14.3333C11.9283 14.3333 12.8185 13.9646 13.4749 13.3082C14.1313 12.6518 14.5 11.7616 14.5 10.8333C14.5 9.90506 14.1313 9.01482 13.4749 8.35844C12.8185 7.70206 11.9283 7.33331 11 7.33331Z" fill="#3048EA"/>
</svg>
