<svg width="46" height="46" viewBox="0 0 46 46" fill="none" xmlns="http://www.w3.org/2000/svg">
<path d="M40.4166 21.8333H37.1666V13.1666C37.1666 12.0174 36.71 10.9152 35.8974 10.1025C35.0847 9.28984 33.9825 8.83329 32.8333 8.83329H24.1666V5.58329C24.1666 4.1467 23.5959 2.76895 22.5801 1.75313C21.5643 0.737309 20.1865 0.166626 18.7499 0.166626C17.3133 0.166626 15.9356 0.737309 14.9198 1.75313C13.9039 2.76895 13.3333 4.1467 13.3333 5.58329V8.83329H4.66659C3.51731 8.83329 2.41511 9.28984 1.60246 10.1025C0.789798 10.9152 0.333252 12.0174 0.333252 13.1666V21.4H3.58325C6.83325 21.4 9.43325 24 9.43325 27.25C9.43325 30.5 6.83325 33.1 3.58325 33.1H0.333252V41.3333C0.333252 42.4826 0.789798 43.5848 1.60246 44.3974C2.41511 45.2101 3.51731 45.6666 4.66659 45.6666H12.8999V42.4166C12.8999 39.1666 15.4999 36.5666 18.7499 36.5666C21.9999 36.5666 24.5999 39.1666 24.5999 42.4166V45.6666H32.8333C33.9825 45.6666 35.0847 45.2101 35.8974 44.3974C36.71 43.5848 37.1666 42.4826 37.1666 41.3333V32.6666H40.4166C41.8532 32.6666 43.2309 32.0959 44.2467 31.0801C45.2626 30.0643 45.8333 28.6866 45.8333 27.25C45.8333 25.8134 45.2626 24.4356 44.2467 23.4198C43.2309 22.404 41.8532 21.8333 40.4166 21.8333Z" fill="white"/>
</svg>
