<svg width="25" height="25" viewBox="0 0 25 25" fill="none" xmlns="http://www.w3.org/2000/svg">
<path d="M21.9167 11.8334H20.1667V7.16669C20.1667 6.54785 19.9209 5.95436 19.4833 5.51677C19.0457 5.07919 18.4522 4.83335 17.8334 4.83335H13.1667V3.08335C13.1667 2.30981 12.8594 1.56794 12.3124 1.02096C11.7655 0.473978 11.0236 0.166687 10.25 0.166687C9.47649 0.166687 8.73463 0.473978 8.18765 1.02096C7.64066 1.56794 7.33337 2.30981 7.33337 3.08335V4.83335H2.66671C2.04787 4.83335 1.45438 5.07919 1.01679 5.51677C0.579207 5.95436 0.333374 6.54785 0.333374 7.16669V11.6H2.08337C3.83337 11.6 5.23337 13 5.23337 14.75C5.23337 16.5 3.83337 17.9 2.08337 17.9H0.333374V22.3334C0.333374 22.9522 0.579207 23.5457 1.01679 23.9833C1.45438 24.4209 2.04787 24.6667 2.66671 24.6667H7.10004V22.9167C7.10004 21.1667 8.50004 19.7667 10.25 19.7667C12 19.7667 13.4 21.1667 13.4 22.9167V24.6667H17.8334C18.4522 24.6667 19.0457 24.4209 19.4833 23.9833C19.9209 23.5457 20.1667 22.9522 20.1667 22.3334V17.6667H21.9167C22.6903 17.6667 23.4321 17.3594 23.9791 16.8124C24.5261 16.2654 24.8334 15.5236 24.8334 14.75C24.8334 13.9765 24.5261 13.2346 23.9791 12.6876C23.4321 12.1406 22.6903 11.8334 21.9167 11.8334Z" fill="#3048EA"/>
</svg>
