<svg width="64" height="64" viewBox="0 0 64 64" fill="none" xmlns="http://www.w3.org/2000/svg">
<rect width="64" height="64" rx="16" fill="#3048EA"/>
<path d="M20.5045 27.9662L21.0877 35.9812V45.8907H16.0574V17.8381H20.9055L26.6284 30.2614L32.3878 17.8381H37.2359V45.8907H32.2056V35.9812L32.7888 27.9662L27.2117 39.2601H26.0817L20.5045 27.9662Z" fill="white"/>
<path d="M42.5115 38.75V17.8381H47.469L47.1044 38.75H42.5115ZM41.9283 43.2676C41.9283 42.3932 42.2077 41.7132 42.7667 41.2274C43.3256 40.7417 43.9817 40.4988 44.7351 40.4988C45.5127 40.4988 46.181 40.7417 46.7399 41.2274C47.2989 41.7132 47.5783 42.3932 47.5783 43.2676C47.5783 44.1177 47.2989 44.7856 46.7399 45.2714C46.181 45.7571 45.5127 46 44.7351 46C43.9817 46 43.3256 45.7571 42.7667 45.2714C42.2077 44.7856 41.9283 44.1177 41.9283 43.2676Z" fill="white"/>
</svg>
