<svg width="172" height="32" viewBox="0 0 172 32" fill="none" xmlns="http://www.w3.org/2000/svg">
<path d="M4.99507 11.5396L5.65016 20.5422V31.6726H0V0.163683H5.44545L11.8735 14.1176L18.3426 0.163683H23.788V31.6726H18.1378V20.5422L18.7929 11.5396L12.5286 24.2251H11.2594L4.99507 11.5396Z" fill="#3048EA"/>
<path d="M29.7136 23.6522V0.163683H35.2818L34.8724 23.6522H29.7136ZM29.0585 28.7263C29.0585 27.7442 29.3724 26.9804 30.0002 26.4348C30.628 25.8892 31.3649 25.6164 32.2111 25.6164C33.0846 25.6164 33.8352 25.8892 34.463 26.4348C35.0908 26.9804 35.4047 27.7442 35.4047 28.7263C35.4047 29.6812 35.0908 30.4314 34.463 30.977C33.8352 31.5226 33.0846 31.7954 32.2111 31.7954C31.3649 31.7954 30.628 31.5226 30.0002 30.977C29.3724 30.4314 29.0585 29.6812 29.0585 28.7263Z" fill="#3048EA"/>
<path d="M48.1617 20.5831H46.0736V31.6726H40.4234V0.163683H48.3664C52.2151 0.163683 55.0401 0.913897 56.8416 2.41432C58.6431 3.91475 59.5439 6.31543 59.5439 9.61637V11.2532C59.5439 13.5993 59.1072 15.4408 58.2337 16.7775C57.3875 18.1142 56.0091 19.0827 54.0984 19.6829L61.0178 31.6726H54.426L48.1617 20.5831ZM48.3664 15.3862C50.3317 15.3862 51.6964 15.0452 52.4607 14.3632C53.225 13.6539 53.6071 12.5217 53.6071 10.9668V9.90281C53.6071 8.81159 53.4706 7.95226 53.1977 7.32481C52.952 6.67008 52.4471 6.17903 51.6828 5.85166C50.9458 5.5243 49.8676 5.36062 48.4483 5.36062H46.0326V15.3862H48.3664Z" fill="#3048EA"/>
<path d="M79.3502 31.6726L77.7534 26.1074H69.6876L68.0498 31.6726H62.2359L70.9568 0.204603H76.566L85.1641 31.6726H79.3502ZM73.7 8.92072L71.0796 20.5831H76.3204L73.7 8.92072Z" fill="#3048EA"/>
<path d="M101.478 8.38875C101.396 7.10656 101.014 6.21995 100.332 5.7289C99.6492 5.21057 98.5984 4.95141 97.179 4.95141C95.5959 4.95141 94.4631 5.25149 93.7807 5.85166C93.1256 6.42455 92.7981 7.44757 92.7981 8.92072C92.7981 9.98466 93.0164 10.7894 93.4532 11.335C93.9172 11.8534 94.5177 12.2217 95.2547 12.4399C96.0189 12.6309 97.1517 12.8218 98.653 13.0128C99.6356 13.1219 100.332 13.2174 100.741 13.2992C102.952 13.6539 104.685 14.4177 105.941 15.5908C107.224 16.7639 107.865 18.7826 107.865 21.6471C107.865 25.3026 107.019 27.9489 105.327 29.5857C103.662 31.1952 100.932 32 97.1381 32C90.2323 32 86.7794 29.0401 86.7794 23.1202H92.4705C92.5251 24.4024 92.9073 25.3436 93.6169 25.9437C94.3266 26.5439 95.5413 26.844 97.2609 26.844C98.9805 26.844 100.236 26.4621 101.028 25.6982C101.819 24.9071 102.215 23.6249 102.215 21.8517C102.215 20.8423 101.901 20.0648 101.273 19.5192C100.673 18.9736 99.9358 18.5916 99.0624 18.3734C98.1889 18.1552 97.0562 17.9778 95.6641 17.8414C95.3912 17.7869 94.9817 17.7323 94.4358 17.6778C92.2795 17.4049 90.5189 16.6275 89.1541 15.3453C87.7894 14.0358 87.107 11.9079 87.107 8.96164C87.107 6.04263 87.9668 3.81927 89.6864 2.29156C91.4333 0.763853 93.9308 0 97.179 0C100.209 0 102.57 0.654732 104.262 1.9642C105.954 3.24638 106.923 5.3879 107.169 8.38875H101.478Z" fill="#3048EA"/>
<path d="M112.899 12.4454V4.87676H113.81V6.27405H113.832C114.16 5.38619 114.939 4.75304 116.04 4.75304C117.148 4.75304 117.949 5.39347 118.233 6.34683H118.255C118.612 5.4153 119.502 4.75304 120.646 4.75304C122.125 4.75304 123.094 5.74279 123.094 7.27108V12.4454H122.132V7.48941C122.132 6.31772 121.477 5.6118 120.376 5.6118C119.254 5.6118 118.481 6.47055 118.481 7.67862V12.4454H117.512V7.40207C117.512 6.31772 116.812 5.6118 115.778 5.6118C114.663 5.6118 113.861 6.50694 113.861 7.79506V12.4454H112.899Z" fill="#333333"/>
<path d="M127.161 11.7395C128.487 11.7395 129.529 10.8007 129.529 9.5999V8.76298L127.285 8.91581C126.09 8.99586 125.426 9.51257 125.426 10.3495C125.426 11.1718 126.133 11.7395 127.161 11.7395ZM126.964 12.5691C125.47 12.5691 124.45 11.674 124.45 10.3495C124.45 9.05408 125.419 8.2681 127.168 8.15166L129.529 8.00611V7.35113C129.529 6.2595 128.837 5.60452 127.656 5.60452C126.541 5.60452 125.827 6.15034 125.66 7.06731H124.727C124.836 5.71368 125.951 4.75304 127.678 4.75304C129.406 4.75304 130.491 5.72096 130.491 7.2638V12.4454H129.573V11.0045H129.551C129.129 11.9433 128.094 12.5691 126.964 12.5691Z" fill="#333333"/>
<path d="M132.109 12.4454V4.87676H133.02V6.22311H133.042C133.319 5.29886 134.026 4.75304 134.959 4.75304C135.214 4.75304 135.44 4.80399 135.556 4.8331V5.77918C135.432 5.72096 135.163 5.67002 134.835 5.67002C133.756 5.67002 133.071 6.50694 133.071 7.72957V12.4454H132.109Z" fill="#333333"/>
<path d="M137.633 8.45732L141.379 4.87676H142.574L139.171 8.14439L142.64 12.4454H141.51L138.479 8.73387L137.633 9.51257V12.4454H136.664V1.94391H137.633V8.45732Z" fill="#333333"/>
<path d="M146.182 5.59724C144.826 5.59724 143.886 6.63793 143.806 8.12983H148.485C148.463 6.63793 147.552 5.59724 146.182 5.59724ZM148.426 10.2985H149.381C149.155 11.6085 147.924 12.5691 146.255 12.5691C144.127 12.5691 142.808 11.0845 142.808 8.68292C142.808 6.33227 144.141 4.75304 146.196 4.75304C148.208 4.75304 149.476 6.23039 149.476 8.48643V8.89397H143.799V8.95219C143.799 10.6624 144.768 11.7249 146.277 11.7249C147.421 11.7249 148.215 11.1282 148.426 10.2985Z" fill="#333333"/>
<path d="M151.181 2.9846H152.143V4.87676H153.637V5.67729H152.143V10.5387C152.143 11.3174 152.449 11.6522 153.149 11.6522C153.251 11.6522 153.615 11.6376 153.674 11.6231V12.4454C153.572 12.4673 153.163 12.4891 152.959 12.4891C151.691 12.4891 151.181 11.9505 151.181 10.5824V5.67729H150.052V4.87676H151.181V2.9846Z" fill="#333333"/>
<path d="M155.073 12.4454V4.87676H156.035V12.4454H155.073ZM155.554 3.34848C155.204 3.34848 154.912 3.06465 154.912 2.70805C154.912 2.35873 155.204 2.0749 155.554 2.0749C155.911 2.0749 156.202 2.35873 156.202 2.70805C156.202 3.06465 155.911 3.34848 155.554 3.34848Z" fill="#333333"/>
<path d="M157.762 12.4454V4.87676H158.673V6.27405H158.695C159.081 5.35708 159.97 4.75304 161.194 4.75304C162.856 4.75304 163.876 5.82285 163.876 7.54035V12.4454H162.914V7.69318C162.914 6.36866 162.186 5.6118 160.918 5.6118C159.606 5.6118 158.724 6.55788 158.724 7.96245V12.4454H157.762Z" fill="#333333"/>
<path d="M168.497 11.6667C169.954 11.6667 170.938 10.4514 170.938 8.63926C170.938 6.82715 169.954 5.60452 168.497 5.60452C167.068 5.60452 166.114 6.80532 166.114 8.64654C166.114 10.4732 167.068 11.6667 168.497 11.6667ZM168.591 15.2473C166.937 15.2473 165.691 14.3376 165.48 13.1441H166.478C166.726 13.8864 167.535 14.4176 168.635 14.4176C170.056 14.4176 170.938 13.5953 170.938 12.3581V10.8371H170.916C170.508 11.8123 169.532 12.5182 168.322 12.5182C166.405 12.5182 165.123 10.9826 165.123 8.63926C165.123 6.28861 166.405 4.75304 168.344 4.75304C169.553 4.75304 170.523 5.44441 170.967 6.47783H170.989V4.87676H171.907V12.3217C171.907 14.0829 170.617 15.2473 168.591 15.2473Z" fill="#333333"/>
<path d="M115.61 26.5483C116.936 26.5483 117.978 25.6095 117.978 24.4087V23.5718L115.734 23.7246C114.539 23.8047 113.875 24.3214 113.875 25.1583C113.875 25.9807 114.582 26.5483 115.61 26.5483ZM115.413 27.378C113.919 27.378 112.899 26.4828 112.899 25.1583C112.899 23.8629 113.868 23.0769 115.617 22.9605L117.978 22.815V22.16C117.978 21.0683 117.286 20.4134 116.105 20.4134C114.99 20.4134 114.276 20.9592 114.109 21.8761H113.176C113.285 20.5225 114.4 19.5619 116.127 19.5619C117.855 19.5619 118.94 20.5298 118.94 22.0726V27.2543H118.022V25.8133H118C117.578 26.7521 116.543 27.378 115.413 27.378Z" fill="#333333"/>
<path d="M123.553 26.4756C125.011 26.4756 125.995 25.2602 125.995 23.4481C125.995 21.636 125.011 20.4134 123.553 20.4134C122.125 20.4134 121.17 21.6142 121.17 23.4554C121.17 25.282 122.125 26.4756 123.553 26.4756ZM123.648 30.0561C121.994 30.0561 120.748 29.1464 120.536 27.9529H121.535C121.783 28.6952 122.592 29.2265 123.692 29.2265C125.113 29.2265 125.995 28.4041 125.995 27.1669V25.6459H125.973C125.565 26.6211 124.588 27.327 123.379 27.327C121.462 27.327 120.179 25.7915 120.179 23.4481C120.179 21.0974 121.462 19.5619 123.4 19.5619C124.61 19.5619 125.579 20.2533 126.024 21.2867H126.046V19.6856H126.964V27.1305C126.964 28.8917 125.674 30.0561 123.648 30.0561Z" fill="#333333"/>
<path d="M131.628 20.4061C130.273 20.4061 129.333 21.4468 129.252 22.9387H133.931C133.909 21.4468 132.998 20.4061 131.628 20.4061ZM133.873 25.1074H134.828C134.602 26.4173 133.37 27.378 131.701 27.378C129.573 27.378 128.254 25.8934 128.254 23.4918C128.254 21.1411 129.588 19.5619 131.643 19.5619C133.654 19.5619 134.922 21.0392 134.922 23.2953V23.7028H129.245V23.761C129.245 25.4713 130.214 26.5338 131.723 26.5338C132.867 26.5338 133.662 25.937 133.873 25.1074Z" fill="#333333"/>
<path d="M136.212 27.2543V19.6856H137.123V21.0829H137.145C137.531 20.1659 138.42 19.5619 139.645 19.5619C141.306 19.5619 142.327 20.6317 142.327 22.3492V27.2543H141.365V22.502C141.365 21.1775 140.636 20.4206 139.368 20.4206C138.056 20.4206 137.174 21.3667 137.174 22.7713V27.2543H136.212Z" fill="#333333"/>
<path d="M150.117 22.0799H149.17C148.966 21.1484 148.2 20.4134 147.005 20.4134C145.526 20.4134 144.557 21.5996 144.557 23.4699C144.557 25.3694 145.533 26.5265 147.013 26.5265C148.157 26.5265 148.951 25.8934 149.17 24.9109H150.124C149.913 26.3591 148.681 27.378 147.005 27.378C144.936 27.378 143.573 25.8934 143.573 23.4699C143.573 21.0829 144.936 19.5619 146.998 19.5619C148.784 19.5619 149.928 20.7263 150.117 22.0799Z" fill="#333333"/>
<path d="M151.866 29.9906C151.713 29.9906 151.495 29.9688 151.385 29.947V29.1246C151.502 29.1537 151.691 29.1683 151.844 29.1683C152.537 29.1683 152.916 28.8189 153.251 27.8729L153.455 27.3052L150.613 19.6856H151.648L153.95 26.2936H153.972L156.283 19.6856H157.296L154.315 27.7127C153.652 29.4957 153.112 29.9906 151.866 29.9906Z" fill="#333333"/>
</svg>
